<svg xmlns="http://www.w3.org/2000/svg" viewBox="-8 -8 139.7 139.7" width="139.7" height="139.7">
  <!-- White rounded rectangle background -->
  <rect x="-8" y="-8" width="139.7" height="139.7" rx="18" fill="#ffffff"/>

  <!-- Wired Square logo -->
  <g transform="translate(5.208333e-4,0.00265987)">
    <g>
      <path d="M 110.613,502.918 122.273,237 c 0.512,-11.711 10.094,-20.883 21.813,-20.883 H 783.68 c 11.718,0 21.297,9.172 21.812,20.883 l 11.66,265.918 c 0.946,21.551 18.586,38.434 40.161,38.434 h 70.449 v 66.574 h -70.449 c -21.575,0 -39.215,16.883 -40.161,38.437 l -11.66,265.918 c -0.515,11.707 -10.094,20.879 -21.812,20.879 H 144.086 c -11.719,0 -21.301,-9.172 -21.813,-20.879 L 110.613,646.363 C 109.664,624.809 92.0234,607.926 70.4531,607.926 H -0.00390625 V 541.352 H 70.4531 c 21.5703,0 39.2109,-16.883 40.1599,-38.434" style="fill:#231f20;fill-rule:nonzero" transform="matrix(0.13333333,0,0,-0.13333333,0,138.46667)"/>
      <path d="m 70.4531,626.285 c 11.7188,0 21.2969,9.168 21.8086,20.879 l 11.6603,265.918 c 0.949,21.555 18.59,38.438 40.164,38.438 H 783.68 c 21.57,0 39.215,-16.883 40.16,-38.438 L 835.5,647.164 c 0.512,-11.711 10.094,-20.879 21.813,-20.879 h 70.449 v 291.348 c 0,66.758 -54.125,120.887 -120.887,120.887 H 120.891 C 54.125,1038.52 -0.00390625,984.391 -0.00390625,917.633 V 626.285 H 70.4531" style="fill:#231f20;fill-rule:nonzero" transform="matrix(0.13333333,0,0,-0.13333333,0,138.46667)"/>
      <path d="m 857.313,522.992 c -11.719,0 -21.301,-9.168 -21.813,-20.879 L 823.84,236.195 c -0.945,-21.55 -18.59,-38.433 -40.16,-38.433 H 144.086 c -21.574,0 -39.215,16.883 -40.164,38.433 L 92.2617,502.113 C 91.75,513.824 82.1719,522.992 70.4531,522.992 H -0.00390625 V 231.645 C -0.00390625,164.879 54.125,110.758 120.891,110.758 h 685.984 c 66.762,0 120.887,54.121 120.887,120.887 v 291.347 h -70.449" style="fill:#231f20;fill-rule:nonzero" transform="matrix(0.13333333,0,0,-0.13333333,0,138.46667)"/>
      <!-- Orange square -->
      <path d="M 654.445,310.777 H 273.316 c -40.476,0 -73.293,32.821 -73.293,73.301 v 381.121 c 0,40.481 32.817,73.305 73.293,73.305 h 381.129 c 40.481,0 73.297,-32.824 73.297,-73.305 V 384.078 c 0,-40.48 -32.816,-73.301 -73.297,-73.301" style="fill:#f25d19;fill-rule:nonzero" transform="matrix(0.13333333,0,0,-0.13333333,0,138.46667)"/>
    </g>
  </g>

  <!-- Shield-check outline (thin black border) -->
  <g fill="none" stroke="#231f20" stroke-width="5.5" stroke-linecap="round" stroke-linejoin="round"
     transform="translate(62,62) scale(1.4) translate(-62,-69.5)">
    <path d="M62 49 l-15 7 v12 c0 10 6.5 19 15 22 8.5-3 15-12 15-22 V56 Z"/>
    <polyline points="55,67 60,72 70,62"/>
  </g>
  <!-- Shield-check light orange fill -->
  <g fill="none" stroke="#fddcb5" stroke-width="4.5" stroke-linecap="round" stroke-linejoin="round"
     transform="translate(62,62) scale(1.4) translate(-62,-69.5)">
    <path d="M62 49 l-15 7 v12 c0 10 6.5 19 15 22 8.5-3 15-12 15-22 V56 Z"/>
    <polyline points="55,67 60,72 70,62"/>
  </g>
</svg>
